<mxfile host="app.diagrams.net" modified="2020-11-03T04:31:31.506Z" agent="5.0 (Windows NT 10.0; Win64; x64) AppleWebKit/537.36 (KHTML, like Gecko) Chrome/83.0.4103.106 Safari/537.36" etag="RGi2_Kc55yXmo2X20baX" version="13.8.8" type="github">
  <diagram id="FDEmWpOsS1IG__RYmN1O" name="Page-1">
    <mxGraphModel dx="1422" dy="794" grid="1" gridSize="10" guides="1" tooltips="1" connect="1" arrows="1" fold="1" page="1" pageScale="1" pageWidth="1654" pageHeight="2336" math="0" shadow="0">
      <root>
        <mxCell id="0" />
        <mxCell id="1" parent="0" />
        <mxCell id="NxQ93o7LDGB_Hb5vxlaf-1" value="Quản lí" style="whiteSpace=wrap;html=1;align=center;fontSize=18;" parent="1" vertex="1">
          <mxGeometry x="730" y="400" width="230" height="115" as="geometry" />
        </mxCell>
        <mxCell id="NxQ93o7LDGB_Hb5vxlaf-2" value="&lt;font style=&quot;font-size: 18px&quot;&gt;Nhân viên&lt;/font&gt;" style="whiteSpace=wrap;html=1;align=center;" parent="1" vertex="1">
          <mxGeometry x="50" y="720" width="220" height="115" as="geometry" />
        </mxCell>
        <UserObject label="&lt;font style=&quot;font-size: 18px&quot;&gt;Ca làm việc&lt;/font&gt;" lucidchartObjectId="rGYJJDmue9f1" id="NxQ93o7LDGB_Hb5vxlaf-15">
          <mxCell style="html=1;whiteSpace=wrap;shape=partialRectangle;right=0;left=0;whiteSpace=wrap;fontSize=13;fontColor=#333333;spacing=0;strokeColor=#5e5e5e;strokeOpacity=100;rounded=1;absoluteArcSize=1;arcSize=7.199999999999999;strokeWidth=2;" parent="1" vertex="1" zOrder="24">
            <mxGeometry x="425" y="880" width="190" height="80" as="geometry" />
          </mxCell>
        </UserObject>
        <UserObject label="&lt;font style=&quot;font-size: 18px&quot;&gt;Bảng chấm công&lt;/font&gt;" lucidchartObjectId="rGYJJDmue9f1" id="NxQ93o7LDGB_Hb5vxlaf-16">
          <mxCell style="html=1;whiteSpace=wrap;shape=partialRectangle;right=0;left=0;whiteSpace=wrap;fontSize=13;fontColor=#333333;spacing=0;strokeColor=#5e5e5e;strokeOpacity=100;rounded=1;absoluteArcSize=1;arcSize=7.199999999999999;strokeWidth=2;" parent="1" vertex="1" zOrder="24">
            <mxGeometry x="1330" y="310" width="200" height="78" as="geometry" />
          </mxCell>
        </UserObject>
        <UserObject label="&lt;font style=&quot;font-size: 18px&quot;&gt;Nhân viên&lt;/font&gt;" lucidchartObjectId="rGYJJDmue9f1" id="NxQ93o7LDGB_Hb5vxlaf-23">
          <mxCell style="html=1;whiteSpace=wrap;shape=partialRectangle;right=0;left=0;whiteSpace=wrap;fontSize=13;fontColor=#333333;spacing=0;strokeColor=#5e5e5e;strokeOpacity=100;rounded=1;absoluteArcSize=1;arcSize=7.199999999999999;strokeWidth=2;" parent="1" vertex="1" zOrder="24">
            <mxGeometry x="720" y="20" width="200" height="78" as="geometry" />
          </mxCell>
        </UserObject>
        <mxCell id="NxQ93o7LDGB_Hb5vxlaf-27" value="2.5" style="swimlane;childLayout=stackLayout;horizontal=1;startSize=30;horizontalStack=0;rounded=1;fontSize=14;fontStyle=0;strokeWidth=2;resizeParent=0;resizeLast=1;shadow=0;dashed=0;align=center;" parent="1" vertex="1">
          <mxGeometry x="770" y="710" width="160" height="120" as="geometry" />
        </mxCell>
        <mxCell id="NxQ93o7LDGB_Hb5vxlaf-39" value="Hiện thị ca làm &lt;br&gt;việc" style="text;html=1;align=center;verticalAlign=middle;resizable=0;points=[];autosize=1;fontSize=18;" parent="NxQ93o7LDGB_Hb5vxlaf-27" vertex="1">
          <mxGeometry y="30" width="160" height="90" as="geometry" />
        </mxCell>
        <mxCell id="NxQ93o7LDGB_Hb5vxlaf-28" value="2.6" style="swimlane;childLayout=stackLayout;horizontal=1;startSize=30;horizontalStack=0;rounded=1;fontSize=14;fontStyle=0;strokeWidth=2;resizeParent=0;resizeLast=1;shadow=0;dashed=0;align=center;" parent="1" vertex="1">
          <mxGeometry x="1120" y="640" width="160" height="120" as="geometry" />
        </mxCell>
        <mxCell id="NxQ93o7LDGB_Hb5vxlaf-40" value="Chấm công" style="text;html=1;align=center;verticalAlign=middle;resizable=0;points=[];autosize=1;fontSize=18;" parent="NxQ93o7LDGB_Hb5vxlaf-28" vertex="1">
          <mxGeometry y="30" width="160" height="90" as="geometry" />
        </mxCell>
        <mxCell id="NxQ93o7LDGB_Hb5vxlaf-29" value="2.1" style="swimlane;childLayout=stackLayout;horizontal=1;startSize=30;horizontalStack=0;rounded=1;fontSize=14;fontStyle=0;strokeWidth=2;resizeParent=0;resizeLast=1;shadow=0;dashed=0;align=center;" parent="1" vertex="1">
          <mxGeometry x="440" y="160" width="160" height="120" as="geometry" />
        </mxCell>
        <mxCell id="NxQ93o7LDGB_Hb5vxlaf-43" value="Tạo TTNV" style="text;html=1;align=center;verticalAlign=middle;resizable=0;points=[];autosize=1;fontSize=18;" parent="NxQ93o7LDGB_Hb5vxlaf-29" vertex="1">
          <mxGeometry y="30" width="160" height="90" as="geometry" />
        </mxCell>
        <mxCell id="NxQ93o7LDGB_Hb5vxlaf-30" value="2.4" style="swimlane;childLayout=stackLayout;horizontal=1;startSize=30;horizontalStack=0;rounded=1;fontSize=14;fontStyle=0;strokeWidth=2;resizeParent=0;resizeLast=1;shadow=0;dashed=0;align=center;" parent="1" vertex="1">
          <mxGeometry x="440" y="405" width="160" height="120" as="geometry" />
        </mxCell>
        <mxCell id="NxQ93o7LDGB_Hb5vxlaf-38" value="Sắp xếp lịch làm" style="text;html=1;align=center;verticalAlign=middle;resizable=0;points=[];autosize=1;fontSize=18;" parent="NxQ93o7LDGB_Hb5vxlaf-30" vertex="1">
          <mxGeometry y="30" width="160" height="90" as="geometry" />
        </mxCell>
        <mxCell id="NxQ93o7LDGB_Hb5vxlaf-31" value="2.3" style="swimlane;childLayout=stackLayout;horizontal=1;startSize=30;horizontalStack=0;rounded=1;fontSize=15;fontStyle=0;strokeWidth=2;resizeParent=0;resizeLast=1;shadow=0;dashed=0;align=center;" parent="1" vertex="1">
          <mxGeometry x="70" y="400" width="160" height="120" as="geometry" />
        </mxCell>
        <mxCell id="NxQ93o7LDGB_Hb5vxlaf-37" value="Đặt lịch" style="text;html=1;align=center;verticalAlign=middle;resizable=0;points=[];autosize=1;fontSize=18;" parent="NxQ93o7LDGB_Hb5vxlaf-31" vertex="1">
          <mxGeometry y="30" width="160" height="90" as="geometry" />
        </mxCell>
        <mxCell id="NxQ93o7LDGB_Hb5vxlaf-32" value="2.2" style="swimlane;childLayout=stackLayout;horizontal=1;startSize=30;horizontalStack=0;rounded=1;fontSize=14;fontStyle=0;strokeWidth=2;resizeParent=0;resizeLast=1;shadow=0;dashed=0;align=center;" parent="1" vertex="1">
          <mxGeometry x="1070" y="110" width="160" height="120" as="geometry" />
        </mxCell>
        <mxCell id="NxQ93o7LDGB_Hb5vxlaf-42" value="Cập nhật TTNV&amp;nbsp;" style="text;html=1;align=center;verticalAlign=middle;resizable=0;points=[];autosize=1;fontSize=18;" parent="NxQ93o7LDGB_Hb5vxlaf-32" vertex="1">
          <mxGeometry y="30" width="160" height="90" as="geometry" />
        </mxCell>
        <mxCell id="NxQ93o7LDGB_Hb5vxlaf-33" value="2.7" style="swimlane;childLayout=stackLayout;horizontal=1;startSize=30;horizontalStack=0;rounded=1;fontSize=14;fontStyle=0;strokeWidth=2;resizeParent=0;resizeLast=1;shadow=0;dashed=0;align=center;" parent="1" vertex="1">
          <mxGeometry x="1480" y="640" width="160" height="120" as="geometry" />
        </mxCell>
        <mxCell id="NxQ93o7LDGB_Hb5vxlaf-41" value="Tính lương" style="text;html=1;align=center;verticalAlign=middle;resizable=0;points=[];autosize=1;fontSize=18;" parent="NxQ93o7LDGB_Hb5vxlaf-33" vertex="1">
          <mxGeometry y="30" width="160" height="90" as="geometry" />
        </mxCell>
        <mxCell id="NxQ93o7LDGB_Hb5vxlaf-47" value="Yêu cầu đặt lịch&lt;br&gt;" style="endArrow=classic;html=1;fontSize=15;exitX=0.463;exitY=0.018;exitDx=0;exitDy=0;exitPerimeter=0;entryX=0.5;entryY=1;entryDx=0;entryDy=0;" parent="1" source="NxQ93o7LDGB_Hb5vxlaf-2" target="NxQ93o7LDGB_Hb5vxlaf-31" edge="1">
          <mxGeometry width="50" height="50" relative="1" as="geometry">
            <mxPoint x="660" y="550" as="sourcePoint" />
            <mxPoint x="710" y="500" as="targetPoint" />
          </mxGeometry>
        </mxCell>
        <mxCell id="NxQ93o7LDGB_Hb5vxlaf-48" value="" style="endArrow=classic;html=1;fontSize=15;entryX=-0.015;entryY=0.463;entryDx=0;entryDy=0;entryPerimeter=0;" parent="1" source="NxQ93o7LDGB_Hb5vxlaf-37" target="NxQ93o7LDGB_Hb5vxlaf-38" edge="1">
          <mxGeometry width="50" height="50" relative="1" as="geometry">
            <mxPoint x="660" y="550" as="sourcePoint" />
            <mxPoint x="710" y="500" as="targetPoint" />
          </mxGeometry>
        </mxCell>
        <mxCell id="NxQ93o7LDGB_Hb5vxlaf-49" value="Lịch có thể làm" style="edgeLabel;html=1;align=center;verticalAlign=middle;resizable=0;points=[];fontSize=15;" parent="NxQ93o7LDGB_Hb5vxlaf-48" vertex="1" connectable="0">
          <mxGeometry x="-0.3412" y="4" relative="1" as="geometry">
            <mxPoint as="offset" />
          </mxGeometry>
        </mxCell>
        <mxCell id="NxQ93o7LDGB_Hb5vxlaf-50" value="" style="endArrow=classic;html=1;fontSize=15;exitX=0.002;exitY=0.645;exitDx=0;exitDy=0;exitPerimeter=0;" parent="1" source="NxQ93o7LDGB_Hb5vxlaf-1" edge="1">
          <mxGeometry width="50" height="50" relative="1" as="geometry">
            <mxPoint x="160" y="280" as="sourcePoint" />
            <mxPoint x="602" y="473" as="targetPoint" />
            <Array as="points" />
          </mxGeometry>
        </mxCell>
        <mxCell id="NxQ93o7LDGB_Hb5vxlaf-51" value="" style="endArrow=classic;html=1;fontSize=15;exitX=0.476;exitY=1.011;exitDx=0;exitDy=0;exitPerimeter=0;entryX=0.5;entryY=0;entryDx=0;entryDy=0;" parent="1" source="NxQ93o7LDGB_Hb5vxlaf-38" target="NxQ93o7LDGB_Hb5vxlaf-15" edge="1">
          <mxGeometry width="50" height="50" relative="1" as="geometry">
            <mxPoint x="180" y="270" as="sourcePoint" />
            <mxPoint x="516" y="830" as="targetPoint" />
          </mxGeometry>
        </mxCell>
        <mxCell id="NxQ93o7LDGB_Hb5vxlaf-54" value="Lịch sau khi sắp xếp" style="edgeLabel;html=1;align=center;verticalAlign=middle;resizable=0;points=[];fontSize=15;" parent="NxQ93o7LDGB_Hb5vxlaf-51" vertex="1" connectable="0">
          <mxGeometry x="-0.0959" y="3" relative="1" as="geometry">
            <mxPoint as="offset" />
          </mxGeometry>
        </mxCell>
        <mxCell id="NxQ93o7LDGB_Hb5vxlaf-52" value="" style="endArrow=classic;html=1;fontSize=15;exitX=-0.006;exitY=0.448;exitDx=0;exitDy=0;exitPerimeter=0;entryX=1;entryY=0.5;entryDx=0;entryDy=0;" parent="1" source="NxQ93o7LDGB_Hb5vxlaf-39" target="NxQ93o7LDGB_Hb5vxlaf-2" edge="1">
          <mxGeometry width="50" height="50" relative="1" as="geometry">
            <mxPoint x="10" y="380" as="sourcePoint" />
            <mxPoint x="60" y="330" as="targetPoint" />
          </mxGeometry>
        </mxCell>
        <mxCell id="NxQ93o7LDGB_Hb5vxlaf-53" value="Chi tiết ca làm việc&amp;nbsp;" style="edgeLabel;html=1;align=center;verticalAlign=middle;resizable=0;points=[];fontSize=15;" parent="NxQ93o7LDGB_Hb5vxlaf-52" vertex="1" connectable="0">
          <mxGeometry x="-0.353" y="7" relative="1" as="geometry">
            <mxPoint as="offset" />
          </mxGeometry>
        </mxCell>
        <mxCell id="NxQ93o7LDGB_Hb5vxlaf-55" value="Ca làm NV" style="endArrow=classic;html=1;fontSize=15;exitX=1;exitY=0.5;exitDx=0;exitDy=0;entryX=0.449;entryY=1.035;entryDx=0;entryDy=0;entryPerimeter=0;" parent="1" source="NxQ93o7LDGB_Hb5vxlaf-15" target="NxQ93o7LDGB_Hb5vxlaf-39" edge="1">
          <mxGeometry width="50" height="50" relative="1" as="geometry">
            <mxPoint x="660" y="550" as="sourcePoint" />
            <mxPoint x="710" y="500" as="targetPoint" />
            <Array as="points">
              <mxPoint x="842" y="920" />
            </Array>
          </mxGeometry>
        </mxCell>
        <mxCell id="NxQ93o7LDGB_Hb5vxlaf-59" value="" style="endArrow=classic;html=1;fontSize=15;entryX=0.5;entryY=0;entryDx=0;entryDy=0;" parent="1" target="NxQ93o7LDGB_Hb5vxlaf-28" edge="1">
          <mxGeometry width="50" height="50" relative="1" as="geometry">
            <mxPoint x="960" y="450" as="sourcePoint" />
            <mxPoint x="710" y="500" as="targetPoint" />
            <Array as="points">
              <mxPoint x="1200" y="450" />
            </Array>
          </mxGeometry>
        </mxCell>
        <mxCell id="NxQ93o7LDGB_Hb5vxlaf-62" value="Yêu cầu chấm công&amp;nbsp;" style="edgeLabel;html=1;align=center;verticalAlign=middle;resizable=0;points=[];fontSize=15;" parent="NxQ93o7LDGB_Hb5vxlaf-59" vertex="1" connectable="0">
          <mxGeometry x="-0.2207" y="4" relative="1" as="geometry">
            <mxPoint as="offset" />
          </mxGeometry>
        </mxCell>
        <mxCell id="NxQ93o7LDGB_Hb5vxlaf-60" value="" style="endArrow=classic;html=1;fontSize=15;exitX=0.5;exitY=0;exitDx=0;exitDy=0;" parent="1" source="NxQ93o7LDGB_Hb5vxlaf-27" edge="1">
          <mxGeometry width="50" height="50" relative="1" as="geometry">
            <mxPoint x="660" y="550" as="sourcePoint" />
            <mxPoint x="850" y="515" as="targetPoint" />
          </mxGeometry>
        </mxCell>
        <mxCell id="NxQ93o7LDGB_Hb5vxlaf-61" value="Lịch làm của NV" style="edgeLabel;html=1;align=center;verticalAlign=middle;resizable=0;points=[];fontSize=15;" parent="NxQ93o7LDGB_Hb5vxlaf-60" vertex="1" connectable="0">
          <mxGeometry x="0.1839" y="-3" relative="1" as="geometry">
            <mxPoint as="offset" />
          </mxGeometry>
        </mxCell>
        <mxCell id="NxQ93o7LDGB_Hb5vxlaf-63" value="" style="endArrow=classic;html=1;fontSize=15;exitX=1;exitY=0.75;exitDx=0;exitDy=0;entryX=0.25;entryY=0;entryDx=0;entryDy=0;" parent="1" source="NxQ93o7LDGB_Hb5vxlaf-1" target="NxQ93o7LDGB_Hb5vxlaf-33" edge="1">
          <mxGeometry width="50" height="50" relative="1" as="geometry">
            <mxPoint x="660" y="550" as="sourcePoint" />
            <mxPoint x="710" y="500" as="targetPoint" />
            <Array as="points">
              <mxPoint x="1520" y="488" />
            </Array>
          </mxGeometry>
        </mxCell>
        <mxCell id="NxQ93o7LDGB_Hb5vxlaf-74" value="Yêu cầu tính lương" style="edgeLabel;html=1;align=center;verticalAlign=middle;resizable=0;points=[];fontSize=15;" parent="NxQ93o7LDGB_Hb5vxlaf-63" vertex="1" connectable="0">
          <mxGeometry x="-0.6797" y="-1" relative="1" as="geometry">
            <mxPoint as="offset" />
          </mxGeometry>
        </mxCell>
        <mxCell id="NxQ93o7LDGB_Hb5vxlaf-64" value="" style="endArrow=classic;html=1;fontSize=15;entryX=1.003;entryY=0.444;entryDx=0;entryDy=0;entryPerimeter=0;" parent="1" target="NxQ93o7LDGB_Hb5vxlaf-43" edge="1">
          <mxGeometry width="50" height="50" relative="1" as="geometry">
            <mxPoint x="840" y="400" as="sourcePoint" />
            <mxPoint x="710" y="500" as="targetPoint" />
            <Array as="points">
              <mxPoint x="840" y="230" />
            </Array>
          </mxGeometry>
        </mxCell>
        <mxCell id="NxQ93o7LDGB_Hb5vxlaf-65" value="Thông tin NV" style="edgeLabel;html=1;align=center;verticalAlign=middle;resizable=0;points=[];fontSize=15;" parent="NxQ93o7LDGB_Hb5vxlaf-64" vertex="1" connectable="0">
          <mxGeometry x="0.2666" y="3" relative="1" as="geometry">
            <mxPoint x="-26.43" y="-2.98" as="offset" />
          </mxGeometry>
        </mxCell>
        <mxCell id="NxQ93o7LDGB_Hb5vxlaf-66" value="" style="endArrow=classic;html=1;fontSize=15;entryX=0.5;entryY=1;entryDx=0;entryDy=0;" parent="1" target="NxQ93o7LDGB_Hb5vxlaf-32" edge="1">
          <mxGeometry width="50" height="50" relative="1" as="geometry">
            <mxPoint x="905" y="405" as="sourcePoint" />
            <mxPoint x="710" y="500" as="targetPoint" />
            <Array as="points">
              <mxPoint x="905" y="330" />
              <mxPoint x="1150" y="330" />
            </Array>
          </mxGeometry>
        </mxCell>
        <mxCell id="NxQ93o7LDGB_Hb5vxlaf-67" value="Thông tin cập nhật" style="edgeLabel;html=1;align=center;verticalAlign=middle;resizable=0;points=[];fontSize=15;" parent="NxQ93o7LDGB_Hb5vxlaf-66" vertex="1" connectable="0">
          <mxGeometry x="-0.5946" y="-47" relative="1" as="geometry">
            <mxPoint x="48" y="-0.71" as="offset" />
          </mxGeometry>
        </mxCell>
        <mxCell id="NxQ93o7LDGB_Hb5vxlaf-68" value="" style="endArrow=classic;html=1;fontSize=15;exitX=0.5;exitY=1;exitDx=0;exitDy=0;entryX=0.012;entryY=0.495;entryDx=0;entryDy=0;entryPerimeter=0;" parent="1" source="NxQ93o7LDGB_Hb5vxlaf-23" target="NxQ93o7LDGB_Hb5vxlaf-42" edge="1">
          <mxGeometry width="50" height="50" relative="1" as="geometry">
            <mxPoint x="660" y="550" as="sourcePoint" />
            <mxPoint x="710" y="500" as="targetPoint" />
            <Array as="points">
              <mxPoint x="820" y="185" />
            </Array>
          </mxGeometry>
        </mxCell>
        <mxCell id="NxQ93o7LDGB_Hb5vxlaf-69" value="Thông tin cập nhật" style="edgeLabel;html=1;align=center;verticalAlign=middle;resizable=0;points=[];fontSize=15;" parent="NxQ93o7LDGB_Hb5vxlaf-68" vertex="1" connectable="0">
          <mxGeometry x="-0.0204" y="2" relative="1" as="geometry">
            <mxPoint x="21.29" y="2.14" as="offset" />
          </mxGeometry>
        </mxCell>
        <mxCell id="NxQ93o7LDGB_Hb5vxlaf-70" value="Thông tin cập nhật" style="endArrow=classic;html=1;fontSize=15;exitX=0.5;exitY=0;exitDx=0;exitDy=0;entryX=1;entryY=0.5;entryDx=0;entryDy=0;" parent="1" source="NxQ93o7LDGB_Hb5vxlaf-32" target="NxQ93o7LDGB_Hb5vxlaf-23" edge="1">
          <mxGeometry width="50" height="50" relative="1" as="geometry">
            <mxPoint x="660" y="550" as="sourcePoint" />
            <mxPoint x="710" y="500" as="targetPoint" />
            <Array as="points">
              <mxPoint x="1150" y="59" />
            </Array>
          </mxGeometry>
        </mxCell>
        <mxCell id="NxQ93o7LDGB_Hb5vxlaf-72" value="" style="endArrow=classic;html=1;fontSize=15;exitX=0.5;exitY=0;exitDx=0;exitDy=0;entryX=0;entryY=0.5;entryDx=0;entryDy=0;" parent="1" source="NxQ93o7LDGB_Hb5vxlaf-29" target="NxQ93o7LDGB_Hb5vxlaf-23" edge="1">
          <mxGeometry width="50" height="50" relative="1" as="geometry">
            <mxPoint x="660" y="550" as="sourcePoint" />
            <mxPoint x="710" y="500" as="targetPoint" />
            <Array as="points">
              <mxPoint x="520" y="59" />
            </Array>
          </mxGeometry>
        </mxCell>
        <mxCell id="NxQ93o7LDGB_Hb5vxlaf-73" value="Thông tin NV" style="edgeLabel;html=1;align=center;verticalAlign=middle;resizable=0;points=[];fontSize=15;" parent="NxQ93o7LDGB_Hb5vxlaf-72" vertex="1" connectable="0">
          <mxGeometry x="0.1106" y="2" relative="1" as="geometry">
            <mxPoint x="13.86" y="2" as="offset" />
          </mxGeometry>
        </mxCell>
        <mxCell id="NxQ93o7LDGB_Hb5vxlaf-75" value="" style="endArrow=classic;html=1;fontSize=15;exitX=0.75;exitY=0;exitDx=0;exitDy=0;entryX=0.25;entryY=1;entryDx=0;entryDy=0;" parent="1" source="NxQ93o7LDGB_Hb5vxlaf-28" target="NxQ93o7LDGB_Hb5vxlaf-16" edge="1">
          <mxGeometry width="50" height="50" relative="1" as="geometry">
            <mxPoint x="660" y="550" as="sourcePoint" />
            <mxPoint x="710" y="500" as="targetPoint" />
            <Array as="points">
              <mxPoint x="1240" y="450" />
              <mxPoint x="1380" y="450" />
            </Array>
          </mxGeometry>
        </mxCell>
        <mxCell id="NxQ93o7LDGB_Hb5vxlaf-77" value="" style="endArrow=classic;html=1;fontSize=15;exitX=0.75;exitY=1;exitDx=0;exitDy=0;entryX=0.75;entryY=0;entryDx=0;entryDy=0;" parent="1" source="NxQ93o7LDGB_Hb5vxlaf-16" target="NxQ93o7LDGB_Hb5vxlaf-33" edge="1">
          <mxGeometry width="50" height="50" relative="1" as="geometry">
            <mxPoint x="1170" y="470" as="sourcePoint" />
            <mxPoint x="1220" y="420" as="targetPoint" />
            <Array as="points">
              <mxPoint x="1480" y="450" />
              <mxPoint x="1600" y="450" />
            </Array>
          </mxGeometry>
        </mxCell>
      </root>
    </mxGraphModel>
  </diagram>
</mxfile>
